<svg width="400" height="52" viewBox="0 0 400 52" fill="none" xmlns="http://www.w3.org/2000/svg">
<rect width="400" height="52" rx="26" fill="#3057E5" style="fill:#3057E5;fill:color(display-p3 0.1865 0.3428 0.8969);fill-opacity:1;"/>
<path d="M159.477 32L163.875 20.5469H165.508L170.195 32H168.469L167.133 28.5312H162.344L161.086 32H159.477ZM162.781 27.2969H166.664L165.469 24.125C165.104 23.1615 164.833 22.3698 164.656 21.75C164.51 22.4844 164.305 23.2135 164.039 23.9375L162.781 27.2969ZM176.609 32V30.9531C176.083 31.776 175.31 32.1875 174.289 32.1875C173.628 32.1875 173.018 32.0052 172.461 31.6406C171.909 31.276 171.479 30.7682 171.172 30.1172C170.87 29.4609 170.719 28.7083 170.719 27.8594C170.719 27.0312 170.857 26.2812 171.133 25.6094C171.409 24.9323 171.823 24.4141 172.375 24.0547C172.927 23.6953 173.544 23.5156 174.227 23.5156C174.727 23.5156 175.172 23.6224 175.562 23.8359C175.953 24.0443 176.271 24.3177 176.516 24.6562V20.5469H177.914V32H176.609ZM172.164 27.8594C172.164 28.9219 172.388 29.7161 172.836 30.2422C173.284 30.7682 173.812 31.0312 174.422 31.0312C175.036 31.0312 175.557 30.7812 175.984 30.2812C176.417 29.776 176.633 29.0078 176.633 27.9766C176.633 26.8411 176.414 26.0078 175.977 25.4766C175.539 24.9453 175 24.6797 174.359 24.6797C173.734 24.6797 173.211 24.9349 172.789 25.4453C172.372 25.9557 172.164 26.7604 172.164 27.8594ZM185.516 32V30.9531C184.99 31.776 184.216 32.1875 183.195 32.1875C182.534 32.1875 181.924 32.0052 181.367 31.6406C180.815 31.276 180.385 30.7682 180.078 30.1172C179.776 29.4609 179.625 28.7083 179.625 27.8594C179.625 27.0312 179.763 26.2812 180.039 25.6094C180.315 24.9323 180.729 24.4141 181.281 24.0547C181.833 23.6953 182.451 23.5156 183.133 23.5156C183.633 23.5156 184.078 23.6224 184.469 23.8359C184.859 24.0443 185.177 24.3177 185.422 24.6562V20.5469H186.82V32H185.516ZM181.07 27.8594C181.07 28.9219 181.294 29.7161 181.742 30.2422C182.19 30.7682 182.719 31.0312 183.328 31.0312C183.943 31.0312 184.464 30.7812 184.891 30.2812C185.323 29.776 185.539 29.0078 185.539 27.9766C185.539 26.8411 185.32 26.0078 184.883 25.4766C184.445 24.9453 183.906 24.6797 183.266 24.6797C182.641 24.6797 182.117 24.9349 181.695 25.4453C181.279 25.9557 181.07 26.7604 181.07 27.8594ZM196.562 30.7422L196.766 31.9844C196.37 32.0677 196.016 32.1094 195.703 32.1094C195.193 32.1094 194.797 32.0286 194.516 31.8672C194.234 31.7057 194.036 31.4948 193.922 31.2344C193.807 30.9688 193.75 30.4141 193.75 29.5703V24.7969H192.719V23.7031H193.75V21.6484L195.148 20.8047V23.7031H196.562V24.7969H195.148V29.6484C195.148 30.0495 195.172 30.3073 195.219 30.4219C195.271 30.5365 195.352 30.6276 195.461 30.6953C195.576 30.763 195.737 30.7969 195.945 30.7969C196.102 30.7969 196.307 30.7786 196.562 30.7422ZM197.422 27.8516C197.422 26.3151 197.849 25.1771 198.703 24.4375C199.417 23.8229 200.286 23.5156 201.312 23.5156C202.453 23.5156 203.385 23.8906 204.109 24.6406C204.833 25.3854 205.195 26.4167 205.195 27.7344C205.195 28.8021 205.034 29.6432 204.711 30.2578C204.393 30.8672 203.927 31.3411 203.312 31.6797C202.703 32.0182 202.036 32.1875 201.312 32.1875C200.151 32.1875 199.211 31.8151 198.492 31.0703C197.779 30.3255 197.422 29.2526 197.422 27.8516ZM198.867 27.8516C198.867 28.9141 199.099 29.7109 199.562 30.2422C200.026 30.7682 200.609 31.0312 201.312 31.0312C202.01 31.0312 202.591 30.7656 203.055 30.2344C203.518 29.7031 203.75 28.8932 203.75 27.8047C203.75 26.7786 203.516 26.0026 203.047 25.4766C202.583 24.9453 202.005 24.6797 201.312 24.6797C200.609 24.6797 200.026 24.9427 199.562 25.4688C199.099 25.9948 198.867 26.7891 198.867 27.8516ZM219.656 27.9844L221.172 28.3672C220.854 29.612 220.281 30.5625 219.453 31.2188C218.63 31.8698 217.622 32.1953 216.43 32.1953C215.195 32.1953 214.19 31.9453 213.414 31.4453C212.643 30.9401 212.055 30.2109 211.648 29.2578C211.247 28.3047 211.047 27.2812 211.047 26.1875C211.047 24.9948 211.273 23.9557 211.727 23.0703C212.185 22.1797 212.833 21.5052 213.672 21.0469C214.516 20.5833 215.443 20.3516 216.453 20.3516C217.599 20.3516 218.562 20.6432 219.344 21.2266C220.125 21.8099 220.669 22.6302 220.977 23.6875L219.484 24.0391C219.219 23.2057 218.833 22.599 218.328 22.2188C217.823 21.8385 217.188 21.6484 216.422 21.6484C215.542 21.6484 214.805 21.8594 214.211 22.2812C213.622 22.7031 213.208 23.2708 212.969 23.9844C212.729 24.6927 212.609 25.4245 212.609 26.1797C212.609 27.1536 212.75 28.0052 213.031 28.7344C213.318 29.4583 213.76 30 214.359 30.3594C214.958 30.7188 215.607 30.8984 216.305 30.8984C217.154 30.8984 217.872 30.6536 218.461 30.1641C219.049 29.6745 219.448 28.9479 219.656 27.9844ZM228.281 30.9766C227.76 31.4193 227.258 31.7318 226.773 31.9141C226.294 32.0964 225.779 32.1875 225.227 32.1875C224.315 32.1875 223.615 31.9661 223.125 31.5234C222.635 31.0755 222.391 30.5052 222.391 29.8125C222.391 29.4062 222.482 29.0365 222.664 28.7031C222.852 28.3646 223.094 28.0938 223.391 27.8906C223.693 27.6875 224.031 27.5339 224.406 27.4297C224.682 27.3568 225.099 27.2865 225.656 27.2188C226.792 27.0833 227.628 26.9219 228.164 26.7344C228.169 26.5417 228.172 26.4193 228.172 26.3672C228.172 25.7943 228.039 25.3906 227.773 25.1562C227.414 24.8385 226.88 24.6797 226.172 24.6797C225.51 24.6797 225.021 24.7969 224.703 25.0312C224.391 25.2604 224.159 25.6693 224.008 26.2578L222.633 26.0703C222.758 25.4818 222.964 25.0078 223.25 24.6484C223.536 24.2839 223.951 24.0052 224.492 23.8125C225.034 23.6146 225.661 23.5156 226.375 23.5156C227.083 23.5156 227.659 23.599 228.102 23.7656C228.544 23.9323 228.87 24.1432 229.078 24.3984C229.286 24.6484 229.432 24.9661 229.516 25.3516C229.562 25.5911 229.586 26.0234 229.586 26.6484V28.5234C229.586 29.8307 229.615 30.6589 229.672 31.0078C229.734 31.3516 229.854 31.6823 230.031 32H228.562C228.417 31.7083 228.323 31.3672 228.281 30.9766ZM228.164 27.8359C227.654 28.0443 226.888 28.2214 225.867 28.3672C225.289 28.4505 224.88 28.5443 224.641 28.6484C224.401 28.7526 224.216 28.9062 224.086 29.1094C223.956 29.3073 223.891 29.5286 223.891 29.7734C223.891 30.1484 224.031 30.4609 224.312 30.7109C224.599 30.9609 225.016 31.0859 225.562 31.0859C226.104 31.0859 226.586 30.9688 227.008 30.7344C227.43 30.4948 227.74 30.1693 227.938 29.7578C228.089 29.4401 228.164 28.9714 228.164 28.3516V27.8359ZM231.758 32V23.7031H233.023V24.9609C233.346 24.3724 233.643 23.9844 233.914 23.7969C234.19 23.6094 234.492 23.5156 234.82 23.5156C235.294 23.5156 235.776 23.6667 236.266 23.9688L235.781 25.2734C235.438 25.0703 235.094 24.9688 234.75 24.9688C234.443 24.9688 234.167 25.0625 233.922 25.25C233.677 25.4323 233.503 25.6875 233.398 26.0156C233.242 26.5156 233.164 27.0625 233.164 27.6562V32H231.758ZM240.172 30.7422L240.375 31.9844C239.979 32.0677 239.625 32.1094 239.312 32.1094C238.802 32.1094 238.406 32.0286 238.125 31.8672C237.844 31.7057 237.646 31.4948 237.531 31.2344C237.417 30.9688 237.359 30.4141 237.359 29.5703V24.7969H236.328V23.7031H237.359V21.6484L238.758 20.8047V23.7031H240.172V24.7969H238.758V29.6484C238.758 30.0495 238.781 30.3073 238.828 30.4219C238.88 30.5365 238.961 30.6276 239.07 30.6953C239.185 30.763 239.346 30.7969 239.555 30.7969C239.711 30.7969 239.917 30.7786 240.172 30.7422Z" fill="white" style="fill:white;fill-opacity:1;"/>
</svg>
