<svg width="170" height="52" viewBox="0 0 170 52" fill="none" xmlns="http://www.w3.org/2000/svg">
<rect width="170" height="52" rx="26" fill="#F0F0F0" style="fill:#F0F0F0;fill:color(display-p3 0.9400 0.9400 0.9400);fill-opacity:1;"/>
<path d="M41.375 26C41.375 26.2984 41.2565 26.5845 41.0455 26.7955C40.8345 27.0065 40.5484 27.125 40.25 27.125H23.75C23.4516 27.125 23.1655 27.0065 22.9545 26.7955C22.7435 26.5845 22.625 26.2984 22.625 26C22.625 25.7016 22.7435 25.4155 22.9545 25.2045C23.1655 24.9935 23.4516 24.875 23.75 24.875H40.25C40.5484 24.875 40.8345 24.9935 41.0455 25.2045C41.2565 25.4155 41.375 25.7016 41.375 26Z" fill="black" style="fill:black;fill-opacity:1;"/>
<path d="M87.3672 20.8516V32.5H84.1484V24.8672C83.6276 25.263 83.1224 25.5833 82.6328 25.8281C82.1484 26.0729 81.5391 26.3073 80.8047 26.5312V23.9219C81.888 23.5729 82.7292 23.1536 83.3281 22.6641C83.9271 22.1745 84.3958 21.5703 84.7344 20.8516H87.3672Z" fill="black" style="fill:black;fill-opacity:1;"/>
<path d="M147.375 26C147.375 26.2984 147.256 26.5845 147.045 26.7955C146.835 27.0065 146.548 27.125 146.25 27.125H139.125V34.25C139.125 34.5484 139.006 34.8345 138.795 35.0455C138.585 35.2565 138.298 35.375 138 35.375C137.702 35.375 137.415 35.2565 137.205 35.0455C136.994 34.8345 136.875 34.5484 136.875 34.25V27.125H129.75C129.452 27.125 129.165 27.0065 128.955 26.7955C128.744 26.5845 128.625 26.2984 128.625 26C128.625 25.7016 128.744 25.4155 128.955 25.2045C129.165 24.9935 129.452 24.875 129.75 24.875H136.875V17.75C136.875 17.4516 136.994 17.1655 137.205 16.9545C137.415 16.7435 137.702 16.625 138 16.625C138.298 16.625 138.585 16.7435 138.795 16.9545C139.006 17.1655 139.125 17.4516 139.125 17.75V24.875H146.25C146.548 24.875 146.835 24.9935 147.045 25.2045C147.256 25.4155 147.375 25.7016 147.375 26Z" fill="black" style="fill:black;fill-opacity:1;"/>
</svg>
