<svg width="99" height="47" viewBox="0 0 99 47" fill="none" xmlns="http://www.w3.org/2000/svg">
<rect width="99" height="47" rx="23.5" fill="#3057E5" style="fill:#3057E5;fill:color(display-p3 0.1865 0.3428 0.8969);fill-opacity:1;"/>
<path d="M25.1719 18.5469H28.7109V27.1797H34.2344V30H25.1719V18.5469ZM38.5312 24.3906L35.4922 24.0703C35.6068 23.5391 35.7708 23.1224 35.9844 22.8203C36.2031 22.513 36.5156 22.2474 36.9219 22.0234C37.2135 21.862 37.6146 21.737 38.125 21.6484C38.6354 21.5599 39.1875 21.5156 39.7812 21.5156C40.7344 21.5156 41.5 21.5703 42.0781 21.6797C42.6562 21.7839 43.138 22.0052 43.5234 22.3438C43.7943 22.5781 44.0078 22.9115 44.1641 23.3438C44.3203 23.7708 44.3984 24.1797 44.3984 24.5703V28.2344C44.3984 28.625 44.4219 28.9323 44.4688 29.1562C44.5208 29.375 44.6302 29.6562 44.7969 30H41.8125C41.6927 29.7865 41.6146 29.625 41.5781 29.5156C41.5417 29.401 41.5052 29.224 41.4688 28.9844C41.0521 29.3854 40.638 29.6719 40.2266 29.8438C39.6641 30.0729 39.0104 30.1875 38.2656 30.1875C37.276 30.1875 36.5234 29.9583 36.0078 29.5C35.4974 29.0417 35.2422 28.4766 35.2422 27.8047C35.2422 27.1745 35.4271 26.6562 35.7969 26.25C36.1667 25.8438 36.849 25.5417 37.8438 25.3438C39.0365 25.1042 39.8099 24.9375 40.1641 24.8438C40.5182 24.7448 40.8932 24.6172 41.2891 24.4609C41.2891 24.0703 41.2083 23.7969 41.0469 23.6406C40.8854 23.4844 40.6016 23.4062 40.1953 23.4062C39.6745 23.4062 39.2839 23.4896 39.0234 23.6562C38.8203 23.7865 38.6562 24.0312 38.5312 24.3906ZM41.2891 26.0625C40.8516 26.2188 40.3958 26.3568 39.9219 26.4766C39.276 26.6484 38.8672 26.8177 38.6953 26.9844C38.5182 27.1562 38.4297 27.3516 38.4297 27.5703C38.4297 27.8203 38.5156 28.026 38.6875 28.1875C38.8646 28.3438 39.1224 28.4219 39.4609 28.4219C39.8151 28.4219 40.1432 28.3359 40.4453 28.1641C40.7526 27.9922 40.9688 27.7839 41.0938 27.5391C41.224 27.2891 41.2891 26.9661 41.2891 26.5703V26.0625ZM46.3359 21.7031H49.3125V23.0625C49.599 22.474 49.8932 22.0703 50.1953 21.8516C50.5026 21.6276 50.8802 21.5156 51.3281 21.5156C51.7969 21.5156 52.3099 21.6615 52.8672 21.9531L51.8828 24.2188C51.5078 24.0625 51.2109 23.9844 50.9922 23.9844C50.5755 23.9844 50.2526 24.1562 50.0234 24.5C49.6953 24.9844 49.5312 25.8906 49.5312 27.2188V30H46.3359V21.7031ZM59.5938 21.7031H62.5703V29.5391L62.5781 29.9062C62.5781 30.4271 62.4661 30.9219 62.2422 31.3906C62.0234 31.8646 61.7292 32.2474 61.3594 32.5391C60.9948 32.8307 60.5286 33.0417 59.9609 33.1719C59.3984 33.3021 58.7526 33.3672 58.0234 33.3672C56.3568 33.3672 55.2109 33.1172 54.5859 32.6172C53.9661 32.1172 53.6562 31.4479 53.6562 30.6094C53.6562 30.5052 53.6615 30.3646 53.6719 30.1875L56.7578 30.5391C56.8359 30.8255 56.9557 31.0234 57.1172 31.1328C57.3516 31.2943 57.6458 31.375 58 31.375C58.4583 31.375 58.7995 31.2526 59.0234 31.0078C59.2526 30.763 59.3672 30.3359 59.3672 29.7266V28.4688C59.0547 28.8385 58.7422 29.1068 58.4297 29.2734C57.9401 29.5339 57.4115 29.6641 56.8438 29.6641C55.7344 29.6641 54.8385 29.1797 54.1562 28.2109C53.6719 27.5234 53.4297 26.6146 53.4297 25.4844C53.4297 24.1927 53.7422 23.2083 54.3672 22.5312C54.9922 21.8542 55.8099 21.5156 56.8203 21.5156C57.4661 21.5156 57.9974 21.625 58.4141 21.8438C58.8359 22.0625 59.2292 22.4245 59.5938 22.9297V21.7031ZM56.6016 25.7266C56.6016 26.3255 56.7292 26.7708 56.9844 27.0625C57.2396 27.349 57.5755 27.4922 57.9922 27.4922C58.388 27.4922 58.7188 27.3438 58.9844 27.0469C59.2552 26.7448 59.3906 26.2917 59.3906 25.6875C59.3906 25.0833 59.25 24.6224 58.9688 24.3047C58.6875 23.9818 58.3438 23.8203 57.9375 23.8203C57.5312 23.8203 57.2057 23.9688 56.9609 24.2656C56.7214 24.5573 56.6016 25.0443 56.6016 25.7266ZM73.7031 26.6406H67.3281C67.3854 27.151 67.5234 27.5312 67.7422 27.7812C68.0495 28.1406 68.4505 28.3203 68.9453 28.3203C69.2578 28.3203 69.5547 28.2422 69.8359 28.0859C70.0078 27.987 70.1927 27.8125 70.3906 27.5625L73.5234 27.8516C73.0443 28.6849 72.4661 29.2839 71.7891 29.6484C71.112 30.0078 70.1406 30.1875 68.875 30.1875C67.776 30.1875 66.9115 30.0339 66.2812 29.7266C65.651 29.4141 65.1276 28.9219 64.7109 28.25C64.2995 27.5729 64.0938 26.7786 64.0938 25.8672C64.0938 24.5703 64.5078 23.5208 65.3359 22.7188C66.1693 21.9167 67.3177 21.5156 68.7812 21.5156C69.9688 21.5156 70.9062 21.6953 71.5938 22.0547C72.2812 22.4141 72.8047 22.9349 73.1641 23.6172C73.5234 24.2995 73.7031 25.1875 73.7031 26.2812V26.6406ZM70.4688 25.1172C70.4062 24.5026 70.2396 24.0625 69.9688 23.7969C69.7031 23.5312 69.3516 23.3984 68.9141 23.3984C68.4089 23.3984 68.0052 23.599 67.7031 24C67.5104 24.25 67.388 24.6224 67.3359 25.1172H70.4688Z" fill="white" style="fill:white;fill-opacity:1;"/>
</svg>
