<svg width="105" height="42" viewBox="0 0 105 42" fill="none" xmlns="http://www.w3.org/2000/svg">
<rect width="105" height="42" rx="21" fill="#F0F0F0" style="fill:#F0F0F0;fill:color(display-p3 0.9400 0.9400 0.9400);fill-opacity:1;"/>
<path d="M25.1875 27V15.5469H27.4688L30.1797 23.6562C30.4297 24.4115 30.612 24.9766 30.7266 25.3516C30.8568 24.9349 31.0599 24.3229 31.3359 23.5156L34.0781 15.5469H36.1172V27H34.6562V17.4141L31.3281 27H29.9609L26.6484 17.25V27H25.1875ZM44.0625 24.3281L45.5156 24.5078C45.2865 25.3568 44.862 26.0156 44.2422 26.4844C43.6224 26.9531 42.8307 27.1875 41.8672 27.1875C40.6536 27.1875 39.6901 26.8151 38.9766 26.0703C38.2682 25.3203 37.9141 24.2708 37.9141 22.9219C37.9141 21.526 38.2734 20.4427 38.9922 19.6719C39.7109 18.901 40.6432 18.5156 41.7891 18.5156C42.8984 18.5156 43.8047 18.8932 44.5078 19.6484C45.2109 20.4036 45.5625 21.4661 45.5625 22.8359C45.5625 22.9193 45.5599 23.0443 45.5547 23.2109H39.3672C39.4193 24.1224 39.6771 24.8203 40.1406 25.3047C40.6042 25.7891 41.1823 26.0312 41.875 26.0312C42.3906 26.0312 42.8307 25.8958 43.1953 25.625C43.5599 25.3542 43.849 24.9219 44.0625 24.3281ZM39.4453 22.0547H44.0781C44.0156 21.3568 43.8385 20.8333 43.5469 20.4844C43.099 19.9427 42.5182 19.6719 41.8047 19.6719C41.1589 19.6719 40.6146 19.888 40.1719 20.3203C39.7344 20.7526 39.4922 21.3307 39.4453 22.0547ZM52.6719 27V25.9531C52.1458 26.776 51.3724 27.1875 50.3516 27.1875C49.6901 27.1875 49.0807 27.0052 48.5234 26.6406C47.9714 26.276 47.5417 25.7682 47.2344 25.1172C46.9323 24.4609 46.7812 23.7083 46.7812 22.8594C46.7812 22.0312 46.9193 21.2812 47.1953 20.6094C47.4714 19.9323 47.8854 19.4141 48.4375 19.0547C48.9896 18.6953 49.6068 18.5156 50.2891 18.5156C50.7891 18.5156 51.2344 18.6224 51.625 18.8359C52.0156 19.0443 52.3333 19.3177 52.5781 19.6562V15.5469H53.9766V27H52.6719ZM48.2266 22.8594C48.2266 23.9219 48.4505 24.7161 48.8984 25.2422C49.3464 25.7682 49.875 26.0312 50.4844 26.0312C51.099 26.0312 51.6198 25.7812 52.0469 25.2812C52.4792 24.776 52.6953 24.0078 52.6953 22.9766C52.6953 21.8411 52.4766 21.0078 52.0391 20.4766C51.6016 19.9453 51.0625 19.6797 50.4219 19.6797C49.7969 19.6797 49.2734 19.9349 48.8516 20.4453C48.4349 20.9557 48.2266 21.7604 48.2266 22.8594ZM56.2031 17.1641V15.5469H57.6094V17.1641H56.2031ZM56.2031 27V18.7031H57.6094V27H56.2031ZM65.1953 27V25.7812C64.5495 26.7188 63.6719 27.1875 62.5625 27.1875C62.0729 27.1875 61.6146 27.0938 61.1875 26.9062C60.7656 26.7188 60.4505 26.4844 60.2422 26.2031C60.0391 25.9167 59.8958 25.5677 59.8125 25.1562C59.7552 24.8802 59.7266 24.4427 59.7266 23.8438V18.7031H61.1328V23.3047C61.1328 24.0391 61.1615 24.5339 61.2188 24.7891C61.3073 25.1589 61.4948 25.4505 61.7812 25.6641C62.0677 25.8724 62.4219 25.9766 62.8438 25.9766C63.2656 25.9766 63.6615 25.8698 64.0312 25.6562C64.401 25.4375 64.6615 25.1432 64.8125 24.7734C64.9688 24.3984 65.0469 23.8568 65.0469 23.1484V18.7031H66.4531V27H65.1953ZM68.6641 27V18.7031H69.9219V19.8672C70.1823 19.4609 70.5286 19.1354 70.9609 18.8906C71.3932 18.6406 71.8854 18.5156 72.4375 18.5156C73.0521 18.5156 73.5547 18.6432 73.9453 18.8984C74.3411 19.1536 74.6198 19.5104 74.7812 19.9688C75.4375 19 76.2917 18.5156 77.3438 18.5156C78.1667 18.5156 78.7995 18.7448 79.2422 19.2031C79.6849 19.6562 79.9062 20.3568 79.9062 21.3047V27H78.5078V21.7734C78.5078 21.2109 78.4609 20.8073 78.3672 20.5625C78.2786 20.3125 78.1146 20.112 77.875 19.9609C77.6354 19.8099 77.3542 19.7344 77.0312 19.7344C76.4479 19.7344 75.9635 19.9297 75.5781 20.3203C75.1927 20.7057 75 21.3255 75 22.1797V27H73.5938V21.6094C73.5938 20.9844 73.4792 20.5156 73.25 20.2031C73.0208 19.8906 72.6458 19.7344 72.125 19.7344C71.7292 19.7344 71.362 19.8385 71.0234 20.0469C70.6901 20.2552 70.4479 20.5599 70.2969 20.9609C70.1458 21.362 70.0703 21.9401 70.0703 22.6953V27H68.6641Z" fill="black" fill-opacity="0.6" style="fill:black;fill-opacity:0.6;"/>
</svg>
