<svg width="89" height="42" viewBox="0 0 89 42" fill="none" xmlns="http://www.w3.org/2000/svg">
<rect width="89" height="42" rx="21" fill="#F0F0F0" style="fill:#F0F0F0;fill:color(display-p3 0.9400 0.9400 0.9400);fill-opacity:1;"/>
<path d="M24.7188 23.3203L26.1484 23.1953C26.2161 23.7682 26.3724 24.2396 26.6172 24.6094C26.8672 24.974 27.2526 25.2708 27.7734 25.5C28.2943 25.724 28.8802 25.8359 29.5312 25.8359C30.1094 25.8359 30.6198 25.75 31.0625 25.5781C31.5052 25.4062 31.8333 25.1719 32.0469 24.875C32.2656 24.5729 32.375 24.2448 32.375 23.8906C32.375 23.5312 32.2708 23.2188 32.0625 22.9531C31.8542 22.6823 31.5104 22.4557 31.0312 22.2734C30.724 22.1536 30.0443 21.9688 28.9922 21.7188C27.9401 21.4635 27.2031 21.224 26.7812 21C26.2344 20.7135 25.8255 20.3594 25.5547 19.9375C25.2891 19.5104 25.1562 19.0339 25.1562 18.5078C25.1562 17.9297 25.3203 17.3906 25.6484 16.8906C25.9766 16.3854 26.4557 16.0026 27.0859 15.7422C27.7161 15.4818 28.4167 15.3516 29.1875 15.3516C30.0365 15.3516 30.7839 15.4896 31.4297 15.7656C32.0807 16.0365 32.5807 16.4375 32.9297 16.9688C33.2786 17.5 33.4661 18.1016 33.4922 18.7734L32.0391 18.8828C31.9609 18.1589 31.6953 17.612 31.2422 17.2422C30.7943 16.8724 30.1302 16.6875 29.25 16.6875C28.3333 16.6875 27.6641 16.8568 27.2422 17.1953C26.8255 17.5286 26.6172 17.9323 26.6172 18.4062C26.6172 18.8177 26.7656 19.1562 27.0625 19.4219C27.3542 19.6875 28.1146 19.9609 29.3438 20.2422C30.5781 20.5182 31.4245 20.7604 31.8828 20.9688C32.5495 21.276 33.0417 21.6667 33.3594 22.1406C33.6771 22.6094 33.8359 23.151 33.8359 23.7656C33.8359 24.375 33.6615 24.9505 33.3125 25.4922C32.9635 26.0286 32.4609 26.4479 31.8047 26.75C31.1536 27.0469 30.4193 27.1953 29.6016 27.1953C28.5651 27.1953 27.6953 27.0443 26.9922 26.7422C26.2943 26.4401 25.7448 25.987 25.3438 25.3828C24.9479 24.7734 24.7396 24.0859 24.7188 23.3203ZM35.7266 27V18.7031H36.9844V19.8672C37.2448 19.4609 37.5911 19.1354 38.0234 18.8906C38.4557 18.6406 38.9479 18.5156 39.5 18.5156C40.1146 18.5156 40.6172 18.6432 41.0078 18.8984C41.4036 19.1536 41.6823 19.5104 41.8438 19.9688C42.5 19 43.3542 18.5156 44.4062 18.5156C45.2292 18.5156 45.862 18.7448 46.3047 19.2031C46.7474 19.6562 46.9688 20.3568 46.9688 21.3047V27H45.5703V21.7734C45.5703 21.2109 45.5234 20.8073 45.4297 20.5625C45.3411 20.3125 45.1771 20.112 44.9375 19.9609C44.6979 19.8099 44.4167 19.7344 44.0938 19.7344C43.5104 19.7344 43.026 19.9297 42.6406 20.3203C42.2552 20.7057 42.0625 21.3255 42.0625 22.1797V27H40.6562V21.6094C40.6562 20.9844 40.5417 20.5156 40.3125 20.2031C40.0833 19.8906 39.7083 19.7344 39.1875 19.7344C38.7917 19.7344 38.4245 19.8385 38.0859 20.0469C37.7526 20.2552 37.5104 20.5599 37.3594 20.9609C37.2083 21.362 37.1328 21.9401 37.1328 22.6953V27H35.7266ZM54.4688 25.9766C53.9479 26.4193 53.4453 26.7318 52.9609 26.9141C52.4818 27.0964 51.9661 27.1875 51.4141 27.1875C50.5026 27.1875 49.8021 26.9661 49.3125 26.5234C48.8229 26.0755 48.5781 25.5052 48.5781 24.8125C48.5781 24.4062 48.6693 24.0365 48.8516 23.7031C49.0391 23.3646 49.2812 23.0938 49.5781 22.8906C49.8802 22.6875 50.2188 22.5339 50.5938 22.4297C50.8698 22.3568 51.2865 22.2865 51.8438 22.2188C52.9792 22.0833 53.8151 21.9219 54.3516 21.7344C54.3568 21.5417 54.3594 21.4193 54.3594 21.3672C54.3594 20.7943 54.2266 20.3906 53.9609 20.1562C53.6016 19.8385 53.0677 19.6797 52.3594 19.6797C51.6979 19.6797 51.2083 19.7969 50.8906 20.0312C50.5781 20.2604 50.3464 20.6693 50.1953 21.2578L48.8203 21.0703C48.9453 20.4818 49.151 20.0078 49.4375 19.6484C49.724 19.2839 50.138 19.0052 50.6797 18.8125C51.2214 18.6146 51.849 18.5156 52.5625 18.5156C53.2708 18.5156 53.8464 18.599 54.2891 18.7656C54.7318 18.9323 55.0573 19.1432 55.2656 19.3984C55.474 19.6484 55.6198 19.9661 55.7031 20.3516C55.75 20.5911 55.7734 21.0234 55.7734 21.6484V23.5234C55.7734 24.8307 55.8021 25.6589 55.8594 26.0078C55.9219 26.3516 56.0417 26.6823 56.2188 27H54.75C54.6042 26.7083 54.5104 26.3672 54.4688 25.9766ZM54.3516 22.8359C53.8411 23.0443 53.0755 23.2214 52.0547 23.3672C51.4766 23.4505 51.0677 23.5443 50.8281 23.6484C50.5885 23.7526 50.4036 23.9062 50.2734 24.1094C50.1432 24.3073 50.0781 24.5286 50.0781 24.7734C50.0781 25.1484 50.2188 25.4609 50.5 25.7109C50.7865 25.9609 51.2031 26.0859 51.75 26.0859C52.2917 26.0859 52.7734 25.9688 53.1953 25.7344C53.6172 25.4948 53.9271 25.1693 54.125 24.7578C54.276 24.4401 54.3516 23.9714 54.3516 23.3516V22.8359ZM57.9297 27V15.5469H59.3359V27H57.9297ZM61.4922 27V15.5469H62.8984V27H61.4922Z" fill="black" fill-opacity="0.6" style="fill:black;fill-opacity:0.6;"/>
</svg>
