<svg width="105" height="42" viewBox="0 0 105 42" fill="none" xmlns="http://www.w3.org/2000/svg">
<rect width="105" height="42" rx="21" fill="#F0F0F0" style="fill:#F0F0F0;fill:color(display-p3 0.9400 0.9400 0.9400);fill-opacity:1;"/>
<path d="M24.0703 27L28.5 21.0312L24.5938 15.5469H26.3984L28.4766 18.4844C28.9089 19.0938 29.2161 19.5625 29.3984 19.8906C29.6536 19.474 29.9557 19.0391 30.3047 18.5859L32.6094 15.5469H34.2578L30.2344 20.9453L34.5703 27H32.6953L29.8125 22.9141C29.651 22.6797 29.4844 22.4245 29.3125 22.1484C29.0573 22.5651 28.875 22.8516 28.7656 23.0078L25.8906 27H24.0703ZM35.1797 23.5625V22.1484H39.5V23.5625H35.1797ZM41.1719 27V15.5469H42.6875V25.6484H48.3281V27H41.1719ZM55.375 25.9766C54.8542 26.4193 54.3516 26.7318 53.8672 26.9141C53.388 27.0964 52.8724 27.1875 52.3203 27.1875C51.4089 27.1875 50.7083 26.9661 50.2188 26.5234C49.7292 26.0755 49.4844 25.5052 49.4844 24.8125C49.4844 24.4062 49.5755 24.0365 49.7578 23.7031C49.9453 23.3646 50.1875 23.0938 50.4844 22.8906C50.7865 22.6875 51.125 22.5339 51.5 22.4297C51.776 22.3568 52.1927 22.2865 52.75 22.2188C53.8854 22.0833 54.7214 21.9219 55.2578 21.7344C55.263 21.5417 55.2656 21.4193 55.2656 21.3672C55.2656 20.7943 55.1328 20.3906 54.8672 20.1562C54.5078 19.8385 53.974 19.6797 53.2656 19.6797C52.6042 19.6797 52.1146 19.7969 51.7969 20.0312C51.4844 20.2604 51.2526 20.6693 51.1016 21.2578L49.7266 21.0703C49.8516 20.4818 50.0573 20.0078 50.3438 19.6484C50.6302 19.2839 51.0443 19.0052 51.5859 18.8125C52.1276 18.6146 52.7552 18.5156 53.4688 18.5156C54.1771 18.5156 54.7526 18.599 55.1953 18.7656C55.638 18.9323 55.9635 19.1432 56.1719 19.3984C56.3802 19.6484 56.526 19.9661 56.6094 20.3516C56.6562 20.5911 56.6797 21.0234 56.6797 21.6484V23.5234C56.6797 24.8307 56.7083 25.6589 56.7656 26.0078C56.8281 26.3516 56.9479 26.6823 57.125 27H55.6562C55.5104 26.7083 55.4167 26.3672 55.375 25.9766ZM55.2578 22.8359C54.7474 23.0443 53.9818 23.2214 52.9609 23.3672C52.3828 23.4505 51.974 23.5443 51.7344 23.6484C51.4948 23.7526 51.3099 23.9062 51.1797 24.1094C51.0495 24.3073 50.9844 24.5286 50.9844 24.7734C50.9844 25.1484 51.125 25.4609 51.4062 25.7109C51.6927 25.9609 52.1094 26.0859 52.6562 26.0859C53.1979 26.0859 53.6797 25.9688 54.1016 25.7344C54.5234 25.4948 54.8333 25.1693 55.0312 24.7578C55.1823 24.4401 55.2578 23.9714 55.2578 23.3516V22.8359ZM58.8516 27V18.7031H60.1172V19.9609C60.4401 19.3724 60.737 18.9844 61.0078 18.7969C61.2839 18.6094 61.5859 18.5156 61.9141 18.5156C62.388 18.5156 62.8698 18.6667 63.3594 18.9688L62.875 20.2734C62.5312 20.0703 62.1875 19.9688 61.8438 19.9688C61.5365 19.9688 61.2604 20.0625 61.0156 20.25C60.7708 20.4323 60.5964 20.6875 60.4922 21.0156C60.3359 21.5156 60.2578 22.0625 60.2578 22.6562V27H58.8516ZM63.9375 27.6875L65.3047 27.8906C65.362 28.3125 65.5208 28.6198 65.7812 28.8125C66.1302 29.0729 66.6068 29.2031 67.2109 29.2031C67.862 29.2031 68.3646 29.0729 68.7188 28.8125C69.0729 28.5521 69.3125 28.1875 69.4375 27.7188C69.5104 27.4323 69.5443 26.8307 69.5391 25.9141C68.9245 26.638 68.1589 27 67.2422 27C66.1016 27 65.2188 26.5885 64.5938 25.7656C63.9688 24.9427 63.6562 23.9557 63.6562 22.8047C63.6562 22.013 63.7995 21.2839 64.0859 20.6172C64.3724 19.9453 64.7865 19.4271 65.3281 19.0625C65.875 18.6979 66.5156 18.5156 67.25 18.5156C68.2292 18.5156 69.0365 18.9115 69.6719 19.7031V18.7031H70.9688V25.875C70.9688 27.1667 70.8359 28.0807 70.5703 28.6172C70.3099 29.1589 69.8932 29.5859 69.3203 29.8984C68.7526 30.2109 68.0521 30.3672 67.2188 30.3672C66.2292 30.3672 65.4297 30.1432 64.8203 29.6953C64.2109 29.2526 63.9167 28.5833 63.9375 27.6875ZM65.1016 22.7031C65.1016 23.7917 65.3177 24.5859 65.75 25.0859C66.1823 25.5859 66.724 25.8359 67.375 25.8359C68.0208 25.8359 68.5625 25.5885 69 25.0938C69.4375 24.5938 69.6562 23.8125 69.6562 22.75C69.6562 21.7344 69.4297 20.9688 68.9766 20.4531C68.5286 19.9375 67.987 19.6797 67.3516 19.6797C66.7266 19.6797 66.1953 19.9349 65.7578 20.4453C65.3203 20.9505 65.1016 21.7031 65.1016 22.7031ZM78.7812 24.3281L80.2344 24.5078C80.0052 25.3568 79.5807 26.0156 78.9609 26.4844C78.3411 26.9531 77.5495 27.1875 76.5859 27.1875C75.3724 27.1875 74.4089 26.8151 73.6953 26.0703C72.987 25.3203 72.6328 24.2708 72.6328 22.9219C72.6328 21.526 72.9922 20.4427 73.7109 19.6719C74.4297 18.901 75.362 18.5156 76.5078 18.5156C77.6172 18.5156 78.5234 18.8932 79.2266 19.6484C79.9297 20.4036 80.2812 21.4661 80.2812 22.8359C80.2812 22.9193 80.2786 23.0443 80.2734 23.2109H74.0859C74.138 24.1224 74.3958 24.8203 74.8594 25.3047C75.3229 25.7891 75.901 26.0312 76.5938 26.0312C77.1094 26.0312 77.5495 25.8958 77.9141 25.625C78.2786 25.3542 78.5677 24.9219 78.7812 24.3281ZM74.1641 22.0547H78.7969C78.7344 21.3568 78.5573 20.8333 78.2656 20.4844C77.8177 19.9427 77.237 19.6719 76.5234 19.6719C75.8776 19.6719 75.3333 19.888 74.8906 20.3203C74.4531 20.7526 74.2109 21.3307 74.1641 22.0547Z" fill="black" fill-opacity="0.6" style="fill:black;fill-opacity:0.6;"/>
</svg>
